<?xml version="1.0" standalone="no"?>
<!DOCTYPE svg PUBLIC "-//W3C//DTD SVG 20010904//EN"
 "http://www.w3.org/TR/2001/REC-SVG-20010904/DTD/svg10.dtd">
<svg version="1.0" xmlns="http://www.w3.org/2000/svg"
 width="700.000000pt" height="700.000000pt" viewBox="0 0 700.000000 700.000000"
 preserveAspectRatio="xMidYMid meet">
<metadata>
Created by potrace 1.11, written by Peter Selinger 2001-2013
</metadata>
<g transform="translate(0.000000,700.000000) scale(0.100000,-0.100000)"
fill="#000000" stroke="none">
<path d="M3158 6995 c-2 -2 -39 -6 -83 -9 -534 -38 -1113 -240 -1574 -548
-626 -419 -1082 -1014 -1328 -1733 -35 -105 -108 -383 -118 -457 -3 -24 -8
-50 -10 -58 -7 -24 -25 -177 -33 -270 -14 -168 -6 -585 13 -690 2 -14 6 -41 9
-60 29 -240 132 -615 225 -825 5 -11 21 -47 36 -80 36 -81 112 -231 167 -326
35 -61 201 -304 253 -370 108 -137 253 -294 380 -410 328 -300 746 -549 1160
-692 115 -39 357 -106 440 -122 78 -14 164 -27 200 -31 21 -2 51 -7 65 -9 131
-26 622 -26 790 -1 14 2 52 7 85 11 50 6 219 36 275 50 8 2 29 6 45 10 339 81
689 230 1005 429 71 44 259 178 304 217 193 162 340 305 457 446 73 88 87 105
152 193 184 246 356 575 462 880 50 146 117 400 130 495 3 22 8 50 11 63 2 12
7 42 10 66 2 24 7 55 9 67 19 97 27 518 13 694 -8 106 -33 281 -54 380 -9 39
-17 78 -19 88 -23 108 -82 302 -136 442 -267 706 -783 1317 -1434 1700 -131
77 -411 215 -436 215 -5 0 -17 4 -27 9 -47 26 -336 121 -411 136 -9 1 -36 8
-61 15 -25 7 -54 14 -65 16 -11 2 -31 6 -45 9 -14 2 -41 7 -60 10 -19 3 -47 8
-62 11 -15 3 -42 7 -60 9 -18 3 -55 7 -83 11 -27 3 -66 8 -85 10 -41 5 -507
13 -512 9z"/>
</g>
</svg>
