<?xml version="1.0" encoding="UTF-8" standalone="no"?><!DOCTYPE svg PUBLIC "-//W3C//DTD SVG 1.1//EN" "http://www.w3.org/Graphics/SVG/1.1/DTD/svg11.dtd"><svg width="100%" height="100%" viewBox="0 0 300 64" version="1.1" xmlns="http://www.w3.org/2000/svg" xmlns:xlink="http://www.w3.org/1999/xlink" xml:space="preserve" style="fill-rule:evenodd;clip-rule:evenodd;stroke-linejoin:round;stroke-miterlimit:1.41421;"><g id="Camera.-Lens"><path d="M39,31.999c0,8.837 -7.164,16.001 -16.001,16.001c-8.836,0 -15.999,-7.164 -15.999,-16.001c0,-8.835 7.163,-15.999 15.999,-15.999c8.837,0 16.001,7.164 16.001,15.999" style="fill-rule:nonzero;"/><path d="M22.999,22.303c-0.229,0 -0.453,0.018 -0.679,0.034c0.479,0.92 0.754,1.963 0.754,3.072c0,3.681 -2.984,6.665 -6.664,6.665c-1.11,0 -2.154,-0.274 -3.073,-0.754c-0.016,0.226 -0.035,0.45 -0.035,0.679c0,5.356 4.343,9.698 9.697,9.698c5.356,0 9.699,-4.342 9.699,-9.698c0,-5.354 -4.343,-9.696 -9.699,-9.696" style="fill:#fff;fill-rule:nonzero;"/><path d="M20.761,25.409c0,2.403 -1.949,4.353 -4.351,4.353c-2.404,0 -4.352,-1.95 -4.352,-4.353c0,-2.402 1.948,-4.351 4.352,-4.351c2.402,0 4.351,1.949 4.351,4.351" style="fill:#ffbf00;fill-rule:nonzero;"/></g><g><path d="M54.424,23.385l6.36,0l-4.224,7.296l4.272,7.632l-6.36,0l-4.056,-7.632l4.008,-7.296Zm-9.984,0l5.928,0l0,14.928l-5.928,0l0,-14.928Z" style="fill:#fff;fill-rule:nonzero;"/><path d="M68.176,31.641l2.76,0l0,-2.808c0,-0.304 -0.044,-0.504 -0.132,-0.6c-0.088,-0.096 -0.292,-0.144 -0.612,-0.144l-1.272,0c-0.304,0 -0.504,0.048 -0.6,0.144c-0.096,0.096 -0.144,0.296 -0.144,0.6l0,2.808Zm-3.864,-4.968l10.296,0c1.264,0 1.896,0.632 1.896,1.896l0,4.488l-8.328,0l0,3.096c0,0.32 0.048,0.524 0.144,0.612c0.096,0.088 0.296,0.132 0.6,0.132l1.272,0c0.32,0 0.524,-0.044 0.612,-0.132c0.088,-0.088 0.132,-0.292 0.132,-0.612l0,-1.776l5.568,0l0,2.04c0,1.264 -0.632,1.896 -1.896,1.896l-10.296,0c-1.264,0 -1.896,-0.632 -1.896,-1.896l0,-7.848c0,-1.264 0.632,-1.896 1.896,-1.896Z" style="fill:#fff;fill-rule:nonzero;"/><path d="M83.584,41.697l-3.48,0l0,-1.416l1.608,0c0.656,0 1.144,-0.104 1.464,-0.312c0.32,-0.208 0.568,-0.544 0.744,-1.008l0.24,-0.648l-2.208,0l-4.32,-11.64l6.024,0l1.872,7.944l2.016,-7.944l5.784,0l-4.248,11.472c-0.464,1.296 -1.056,2.212 -1.776,2.748c-0.72,0.536 -1.96,0.804 -3.72,0.804Z" style="fill:#fff;fill-rule:nonzero;"/><path d="M101.872,36.153l0,-2.184c0,-0.304 -0.044,-0.504 -0.132,-0.6c-0.088,-0.096 -0.292,-0.144 -0.612,-0.144l-4.992,0c-1.264,0 -1.896,-0.632 -1.896,-1.896l0,-2.76c0,-1.264 0.632,-1.896 1.896,-1.896l9.336,0c1.264,0 1.896,0.632 1.896,1.896l0,1.992l-5.568,0l0,-1.728c0,-0.304 -0.048,-0.504 -0.144,-0.6c-0.096,-0.096 -0.296,-0.144 -0.6,-0.144l-0.312,0c-0.32,0 -0.524,0.048 -0.612,0.144c-0.088,0.096 -0.132,0.296 -0.132,0.6l0,2.232c0,0.32 0.044,0.524 0.132,0.612c0.088,0.088 0.292,0.132 0.612,0.132l4.992,0c1.264,0 1.896,0.632 1.896,1.896l0,2.712c0,1.264 -0.632,1.896 -1.896,1.896l-9.48,0c-1.264,0 -1.896,-0.632 -1.896,-1.896l0,-1.992l5.568,0l0,1.728c0,0.32 0.048,0.524 0.144,0.612c0.096,0.088 0.296,0.132 0.6,0.132l0.456,0c0.32,0 0.524,-0.044 0.612,-0.132c0.088,-0.088 0.132,-0.292 0.132,-0.612Z" style="fill:#fff;fill-rule:nonzero;"/><path d="M118.456,28.089l-2.112,0l0,8.064c0,0.32 0.044,0.524 0.132,0.612c0.088,0.088 0.292,0.132 0.612,0.132l1.344,0l0,1.416l-5.952,0c-1.264,0 -1.896,-0.632 -1.896,-1.896l0,-8.328l-1.872,0l0,-1.416l1.872,0l0,-3.024l5.76,0l0,3.024l2.112,0l0,1.416Z" style="fill:#fff;fill-rule:nonzero;"/><path d="M128.272,36.153l0,-7.32c0,-0.304 -0.048,-0.504 -0.144,-0.6c-0.096,-0.096 -0.296,-0.144 -0.6,-0.144l-0.912,0c-0.304,0 -0.504,0.048 -0.6,0.144c-0.096,0.096 -0.144,0.296 -0.144,0.6l0,7.32c0,0.32 0.048,0.524 0.144,0.612c0.096,0.088 0.296,0.132 0.6,0.132l0.912,0c0.304,0 0.504,-0.044 0.6,-0.132c0.096,-0.088 0.144,-0.292 0.144,-0.612Zm-6.264,-9.48l10.128,0c1.264,0 1.896,0.632 1.896,1.896l0,7.848c0,1.264 -0.632,1.896 -1.896,1.896l-10.128,0c-1.264,0 -1.896,-0.632 -1.896,-1.896l0,-7.848c0,-1.264 0.632,-1.896 1.896,-1.896Z" style="fill:#fff;fill-rule:nonzero;"/><path d="M143.704,26.673l4.8,0c1.264,0 1.896,0.632 1.896,1.896l0,9.744l-5.76,0l0,-9.48c0,-0.304 -0.048,-0.504 -0.144,-0.6c-0.096,-0.096 -0.296,-0.144 -0.6,-0.144l-0.672,0c-0.608,0 -0.912,0.232 -0.912,0.696l0,9.528l-5.76,0l0,-11.64l5.76,0l0,0.624c0.224,-0.416 0.688,-0.624 1.392,-0.624Z" style="fill:#fff;fill-rule:nonzero;"/><path d="M158.56,31.641l2.76,0l0,-2.808c0,-0.304 -0.044,-0.504 -0.132,-0.6c-0.088,-0.096 -0.292,-0.144 -0.612,-0.144l-1.272,0c-0.304,0 -0.504,0.048 -0.6,0.144c-0.096,0.096 -0.144,0.296 -0.144,0.6l0,2.808Zm-3.864,-4.968l10.296,0c1.264,0 1.896,0.632 1.896,1.896l0,4.488l-8.328,0l0,3.096c0,0.32 0.048,0.524 0.144,0.612c0.096,0.088 0.296,0.132 0.6,0.132l1.272,0c0.32,0 0.524,-0.044 0.612,-0.132c0.088,-0.088 0.132,-0.292 0.132,-0.612l0,-1.776l5.568,0l0,2.04c0,1.264 -0.632,1.896 -1.896,1.896l-10.296,0c-1.264,0 -1.896,-0.632 -1.896,-1.896l0,-7.848c0,-1.264 0.632,-1.896 1.896,-1.896Z" style="fill:#fff;fill-rule:nonzero;"/><path d="M184.048,36.153l0,-3.912c0,-0.304 -0.048,-0.504 -0.144,-0.6c-0.096,-0.096 -0.296,-0.144 -0.6,-0.144l-5.856,0c-1.264,0 -1.896,-0.632 -1.896,-1.896l0,-4.32c0,-1.264 0.632,-1.896 1.896,-1.896l10.728,0c1.264,0 1.896,0.632 1.896,1.896l0,3.024l-6.096,0l0,-2.76c0,-0.32 -0.044,-0.524 -0.132,-0.612c-0.088,-0.088 -0.292,-0.132 -0.612,-0.132l-0.84,0c-0.304,0 -0.504,0.044 -0.6,0.132c-0.096,0.088 -0.144,0.292 -0.144,0.612l0,3.792c0,0.32 0.048,0.524 0.144,0.612c0.096,0.088 0.296,0.132 0.6,0.132l5.856,0c1.264,0 1.896,0.632 1.896,1.896l0,4.44c0,1.264 -0.632,1.896 -1.896,1.896l-10.728,0c-1.264,0 -1.896,-0.632 -1.896,-1.896l0,-3.024l6.096,0l0,2.76c0,0.32 0.044,0.524 0.132,0.612c0.088,0.088 0.292,0.132 0.612,0.132l0.84,0c0.304,0 0.504,-0.044 0.6,-0.132c0.096,-0.088 0.144,-0.292 0.144,-0.612Z" style="fill:#fff;fill-rule:nonzero;"/><path d="M198.184,31.641l2.76,0l0,-2.808c0,-0.304 -0.044,-0.504 -0.132,-0.6c-0.088,-0.096 -0.292,-0.144 -0.612,-0.144l-1.272,0c-0.304,0 -0.504,0.048 -0.6,0.144c-0.096,0.096 -0.144,0.296 -0.144,0.6l0,2.808Zm-3.864,-4.968l10.296,0c1.264,0 1.896,0.632 1.896,1.896l0,4.488l-8.328,0l0,3.096c0,0.32 0.048,0.524 0.144,0.612c0.096,0.088 0.296,0.132 0.6,0.132l1.272,0c0.32,0 0.524,-0.044 0.612,-0.132c0.088,-0.088 0.132,-0.292 0.132,-0.612l0,-1.776l5.568,0l0,2.04c0,1.264 -0.632,1.896 -1.896,1.896l-10.296,0c-1.264,0 -1.896,-0.632 -1.896,-1.896l0,-7.848c0,-1.264 0.632,-1.896 1.896,-1.896Z" style="fill:#fff;fill-rule:nonzero;"/><path d="M222.376,31.041l-5.568,0l0,-2.208c0,-0.304 -0.048,-0.504 -0.144,-0.6c-0.096,-0.096 -0.296,-0.144 -0.6,-0.144l-0.768,0c-0.304,0 -0.504,0.048 -0.6,0.144c-0.096,0.096 -0.144,0.296 -0.144,0.6l0,7.32c0,0.32 0.048,0.524 0.144,0.612c0.096,0.088 0.296,0.132 0.6,0.132l0.768,0c0.304,0 0.504,-0.044 0.6,-0.132c0.096,-0.088 0.144,-0.292 0.144,-0.612l0,-2.136l5.568,0l0,2.4c0,1.264 -0.632,1.896 -1.896,1.896l-9.792,0c-1.264,0 -1.896,-0.632 -1.896,-1.896l0,-7.848c0,-1.264 0.632,-1.896 1.896,-1.896l9.792,0c1.264,0 1.896,0.632 1.896,1.896l0,2.472Z" style="fill:#fff;fill-rule:nonzero;"/><path d="M232.504,26.673l5.76,0l0,11.64l-5.76,0l0,-0.624c-0.224,0.416 -0.688,0.624 -1.392,0.624l-4.8,0c-1.264,0 -1.896,-0.632 -1.896,-1.896l0,-9.744l5.76,0l0,9.48c0,0.32 0.048,0.524 0.144,0.612c0.096,0.088 0.296,0.132 0.6,0.132l0.672,0c0.608,0 0.912,-0.232 0.912,-0.696l0,-9.528Z" style="fill:#fff;fill-rule:nonzero;"/><path d="M249.736,26.601l0.984,0l0,1.776l-2.16,0c-0.624,0 -1.096,0.168 -1.416,0.504c-0.32,0.336 -0.48,0.776 -0.48,1.32l0,8.112l-5.76,0l0,-11.64l5.76,0l0,1.416c0.4,-0.992 1.424,-1.488 3.072,-1.488Z" style="fill:#fff;fill-rule:nonzero;"/><path d="M257.92,38.313l-5.76,0l0,-11.64l5.76,0l0,11.64Zm-5.856,-13.032l0,-3.024l5.952,0l0,3.024l-5.952,0Z" style="fill:#fff;fill-rule:nonzero;"/><path d="M269.104,28.089l-2.112,0l0,8.064c0,0.32 0.044,0.524 0.132,0.612c0.088,0.088 0.292,0.132 0.612,0.132l1.344,0l0,1.416l-5.952,0c-1.264,0 -1.896,-0.632 -1.896,-1.896l0,-8.328l-1.872,0l0,-1.416l1.872,0l0,-3.024l5.76,0l0,3.024l2.112,0l0,1.416Z" style="fill:#fff;fill-rule:nonzero;"/><path d="M275.56,41.697l-3.48,0l0,-1.416l1.608,0c0.656,0 1.144,-0.104 1.464,-0.312c0.32,-0.208 0.568,-0.544 0.744,-1.008l0.24,-0.648l-2.208,0l-4.32,-11.64l6.024,0l1.872,7.944l2.016,-7.944l5.784,0l-4.248,11.472c-0.464,1.296 -1.056,2.212 -1.776,2.748c-0.72,0.536 -1.96,0.804 -3.72,0.804Z" style="fill:#fff;fill-rule:nonzero;"/></g></svg>